<svg width="49" height="19" viewBox="0 0 49 19" fill="none" xmlns="http://www.w3.org/2000/svg">
<g id="google_gpay_icon 1" clip-path="url(#clip0_1631_2567)">
<path id="Vector" d="M23.1748 9.28232V14.8518H21.3652V1.0976H26.1644C26.7373 1.08592 27.3068 1.18512 27.8402 1.38949C28.3736 1.59386 28.8602 1.89935 29.2721 2.28833C29.6881 2.65369 30.0192 3.10176 30.2431 3.60244C30.467 4.10311 30.5785 4.64479 30.5702 5.19106C30.5821 5.74025 30.4723 6.28546 30.2482 6.78933C30.0242 7.29319 29.6912 7.7438 29.2721 8.11025C28.4329 8.89163 27.397 9.28195 26.1644 9.28122H23.1748V9.28232ZM23.1748 2.79096V7.59226H26.2094C26.5421 7.60189 26.8731 7.54361 27.1814 7.42116C27.4897 7.29871 27.7685 7.11477 27.9998 6.88112C28.2299 6.66266 28.4128 6.40136 28.5378 6.11268C28.6627 5.82399 28.727 5.51378 28.727 5.20039C28.727 4.887 28.6627 4.57678 28.5378 4.2881C28.4128 3.99941 28.2299 3.73812 27.9998 3.51966C27.7714 3.28108 27.4936 3.09264 27.1849 2.96682C26.8763 2.841 26.5437 2.78068 26.2094 2.78986H23.1748V2.79096Z" fill="#5F6368"/>
<path id="Vector_2" d="M34.7409 5.13379C36.0783 5.13379 37.1341 5.48278 37.9081 6.18075C38.6821 6.87872 39.0687 7.83569 39.068 9.05165V14.8516H37.3371V13.5457H37.2585C36.5092 14.6212 35.5126 15.1589 34.2688 15.1589C33.2071 15.1589 32.3188 14.8516 31.604 14.2371C31.2609 13.955 30.9867 13.6017 30.8012 13.203C30.6157 12.8044 30.5236 12.3703 30.5317 11.9324C30.5317 10.9586 30.9086 10.1842 31.6624 9.60915C32.4162 9.0341 33.4225 8.74583 34.6813 8.74437C35.7558 8.74437 36.6407 8.93642 37.336 9.32053V8.91667C37.3381 8.61818 37.2721 8.32299 37.1428 8.05251C37.0135 7.78202 36.8242 7.54301 36.5886 7.35282C36.1101 6.93126 35.4865 6.70125 34.842 6.70862C33.8312 6.70862 33.0314 7.12491 32.4424 7.95751L30.8487 6.97749C31.7254 5.74836 33.0227 5.13379 34.7409 5.13379ZM32.3997 11.9708C32.3985 12.1957 32.4523 12.4176 32.5567 12.6181C32.6611 12.8185 32.8131 12.9917 32.9999 13.1232C33.4001 13.4305 33.8968 13.5934 34.4059 13.5841C35.1695 13.5828 35.9015 13.2861 36.4414 12.7588C37.0408 12.2079 37.3405 11.5615 37.3405 10.8196C36.7763 10.3807 35.9896 10.1612 34.9803 10.1612C34.2452 10.1612 33.6323 10.3342 33.1415 10.6803C32.6459 11.0314 32.3997 11.4583 32.3997 11.9708Z" fill="#5F6368"/>
<path id="Vector_3" d="M49.0024 5.44141L42.9602 19.0003H41.0922L43.3344 14.2561L39.3613 5.44141H41.3282L44.1998 12.2016H44.2392L47.0322 5.44141H49.0024Z" fill="#5F6368"/>
<path id="Vector_4" d="M15.8627 8.08126C15.8633 7.54281 15.8167 7.00528 15.7233 6.47461H8.0918V9.51781H12.4628C12.3733 10.0039 12.184 10.4672 11.9062 10.8799C11.6285 11.2925 11.268 11.646 10.8466 11.919V13.8944H13.4552C14.9826 12.5193 15.8627 10.4858 15.8627 8.08126Z" fill="#4285F4"/>
<path id="Vector_5" d="M8.09157 15.8034C10.2754 15.8034 12.1141 15.1032 13.455 13.896L10.8463 11.9206C10.1203 12.4013 9.18516 12.6757 8.09157 12.6757C5.98083 12.6757 4.18929 11.2863 3.54865 9.41406H0.861328V11.4498C1.53486 12.7585 2.56765 13.8586 3.8444 14.6274C5.12114 15.3962 6.59159 15.8033 8.09157 15.8034Z" fill="#34A853"/>
<path id="Vector_6" d="M3.549 9.41382C3.21032 8.43275 3.21032 7.37033 3.549 6.38927V4.35352H0.861686C0.295085 5.45442 0 6.66944 0 7.90154C0 9.13364 0.295085 10.3487 0.861686 11.4496L3.549 9.41382Z" fill="#FBBC04"/>
<path id="Vector_7" d="M8.09157 3.12725C9.24561 3.10884 10.3607 3.53459 11.1959 4.31249L13.5055 2.05724C12.041 0.714059 10.1007 -0.0233717 8.09157 -0.000458145C6.59159 -0.000391393 5.12114 0.406753 3.8444 1.17552C2.56765 1.94429 1.53486 3.04442 0.861328 4.35309L3.54865 6.38884C4.18929 4.51661 5.98083 3.12725 8.09157 3.12725Z" fill="#EA4335"/>
</g>
<defs>
<clipPath id="clip0_1631_2567">
<rect width="49" height="19" fill="white"/>
</clipPath>
</defs>
</svg>
